<svg width="162" height="5" viewBox="0 0 162 5" fill="none" xmlns="http://www.w3.org/2000/svg">
<g id="Group">
<path id="Vector" fill-rule="evenodd" clip-rule="evenodd" d="M3.72402 4.07052C7.15753 3.76527 16.181 3.75001 40.6762 3.71948C78.9264 3.67369 109.284 3.33793 117.721 2.84953C118.391 2.80374 64.7736 2.46797 59.2675 2.71217C50.6837 3.10899 9.69078 2.77322 1.44197 2.31535C-0.90287 2.19325 -0.0235459 1.7659 1.50479 1.67433C3.89149 1.5217 10.298 1.53697 27.8634 1.56749C40.2156 1.58276 138.49 1.23172 149.23 0.605963C155.259 0.25493 158.923 -0.0655794 160.598 0.0107327C162.001 0.0717816 162.022 0.25493 160.807 0.758587C159.991 1.09436 160.912 1.29277 161.498 1.38434C162.398 1.53697 162.022 2.05589 160.891 2.46797C159.363 3.03268 156.725 3.01742 157.981 2.45271C158.253 2.33061 158.316 2.02536 157.353 2.08641C154.547 2.26956 134.721 3.52107 129.34 3.73474C71.8919 6.05462 15.825 4.3605 3.9543 4.92521C-0.253852 5.13888 1.67229 4.25367 3.72402 4.07052Z" fill="#011632"/>
</g>
</svg>
