<svg width="135" height="43" viewBox="0 0 135 43" fill="none" xmlns="http://www.w3.org/2000/svg">
<g id="Group 53">
<g id="Icon">
<path id="Vector" d="M27.9195 13.5815C27.6428 13.307 27.2546 13.1822 26.8747 13.246C26.494 13.3095 26.1653 13.5535 25.9887 13.9037C25.3815 15.1083 24.6101 16.2154 23.7026 17.194C23.7931 16.487 23.8386 15.7759 23.8386 15.0628C23.8386 13.6946 23.659 12.2867 23.3046 10.8776C22.1396 6.24915 19.0846 2.335 14.9231 0.138751C14.5608 -0.0523962 14.1291 -0.0456853 13.7726 0.156648C13.4162 0.359063 13.1828 0.730172 13.1508 1.14528C12.8264 5.35134 10.7046 9.17794 7.32638 11.6464C7.28167 11.6793 7.23728 11.7126 7.19289 11.7457C7.10094 11.8144 7.01428 11.8793 6.93332 11.9339C6.92063 11.9425 6.90807 11.9513 6.89574 11.9603C4.77108 13.5136 3.01799 15.5842 1.82571 17.9487C0.614253 20.354 0 22.935 0 25.6199C0 26.9877 0.179568 28.3957 0.533756 29.805C2.4029 37.2336 8.94989 42.4218 16.4548 42.4218C25.5276 42.4218 32.9087 34.8845 32.9087 25.6199C32.9087 21.0513 31.1369 16.7759 27.9195 13.5815Z" fill="#011632"/>
<path id="Vector_2" d="M15.8249 30.8505C18.6061 30.8505 20.8607 28.5483 20.8607 25.7085C20.8607 22.8686 18.6061 20.5664 15.8249 20.5664C13.0437 20.5664 10.7891 22.8686 10.7891 25.7085C10.7891 28.5483 13.0437 30.8505 15.8249 30.8505Z" fill="white"/>
</g>
<g id="uifry">
<path id="Vector_3" d="M128.889 18.4894V15.3253H127.929V14.625H130.621V15.3253H129.676V18.4894H128.889ZM131.011 18.4894V14.625H131.773L133.19 16.5442H132.835L134.212 14.625H134.973V18.4894H134.186V15.512L134.501 15.5846L133.043 17.5039H132.942L131.535 15.5846L131.799 15.512V18.4894H131.011Z" fill="#011632"/>
<path id="Vector_4" d="M52.7027 35.1564C53.9709 35.1564 55.0923 34.9198 56.0679 34.4468C57.0431 33.9488 57.7869 33.2018 58.2989 32.2059V34.7082H63.4199V14.3164H57.9332V26.2303C57.9332 27.4005 57.5919 28.3466 56.9093 29.0687C56.2262 29.7658 55.3485 30.1145 54.2759 30.1145C53.2027 30.1145 52.3251 29.7658 51.642 29.0687C50.9594 28.3466 50.6181 27.4005 50.6181 26.2303V14.3164H45.1318V26.6784C45.1318 29.2181 45.7777 31.2722 47.0702 32.8408C48.3871 34.3845 50.2643 35.1564 52.7027 35.1564Z" fill="#011632"/>
<path id="Vector_5" d="M67.4297 12.4888H72.9159V6.88672H67.4297V12.4888ZM67.4297 34.7107H72.9159V14.3189H67.4297V34.7107Z" fill="#011632"/>
<path id="Vector_6" d="M79.3447 34.7096H84.831V19.173H89.1102V14.3178H84.831V14.0191C84.831 12.2015 85.8673 11.2927 87.94 11.2927C88.2813 11.2927 88.6838 11.3301 89.147 11.4047V6.62425C88.5863 6.49973 87.94 6.4375 87.2082 6.4375C84.721 6.4375 82.7826 7.09732 81.3926 8.41691C80.0273 9.73654 79.3447 11.6039 79.3447 14.0191V14.3178H75.9795V19.173H79.3447V34.7096Z" fill="#011632"/>
<path id="Vector_7" d="M91.9329 34.7096H97.4195V23.7294C97.4195 22.2106 97.834 21.0404 98.6629 20.2188C99.4922 19.3722 100.577 18.949 101.918 18.949H103.637V14.0938H102.467C101.248 14.0938 100.162 14.3303 99.2116 14.8034C98.2852 15.2515 97.5658 16.1105 97.0539 17.3803V14.3178H91.9329V34.7096Z" fill="#011632"/>
<path id="Vector_8" d="M109.15 42.9994C112.807 42.9994 115.453 40.8705 117.087 36.6129L125.646 14.3164H119.757L115.039 27.4254L110.32 14.3164H104.432L112.296 34.7082L111.93 35.5672C111.637 36.2395 111.259 36.837 110.796 37.3599C110.333 37.8827 109.565 38.1442 108.491 38.1442C107.614 38.1442 106.785 38.0197 106.004 37.7707V42.3644C106.419 42.5885 106.894 42.7504 107.431 42.8499C107.992 42.9496 108.565 42.9994 109.15 42.9994Z" fill="#011632"/>
</g>
</g>
</svg>
