<svg width="179" height="6" viewBox="0 0 179 6" fill="none" xmlns="http://www.w3.org/2000/svg">
<path fill-rule="evenodd" clip-rule="evenodd" d="M4.11644 4.27207C7.90999 3.95618 17.88 3.93578 44.945 3.89165C87.2077 3.82467 120.749 3.46338 130.072 2.95643C130.812 2.90897 71.5697 2.5913 65.486 2.84544C56.0019 3.25824 10.7085 2.93401 1.59414 2.46713C-0.996746 2.34271 -0.0253831 1.9025 1.66324 1.80747C4.30024 1.64918 11.3788 1.66156 30.7869 1.68385C44.435 1.69314 153.018 1.28087 164.885 0.631368C171.547 0.267012 175.595 -0.0647035 177.445 0.0129535C178.995 0.0750464 179.018 0.2635 177.677 0.782409C176.775 1.12835 177.793 1.33204 178.441 1.42597C179.435 1.58256 179.019 2.11674 177.77 2.54137C176.082 3.12327 173.167 3.10893 174.555 2.52718C174.856 2.40139 174.925 2.08725 173.861 2.15057C170.761 2.3405 148.855 3.63864 142.91 3.86131C79.4364 6.27836 17.4871 4.56419 4.37128 5.15145C-0.278218 5.37352 1.84956 4.4616 4.11644 4.27207Z" fill="#25B4F8"/>
</svg>
