<svg width="247" height="8" viewBox="0 0 247 8" fill="none" xmlns="http://www.w3.org/2000/svg">
<path fill-rule="evenodd" clip-rule="evenodd" d="M5.67798 6.16803C10.913 5.70559 24.671 5.68247 62.0187 5.63622C120.338 5.56686 166.624 5.05818 179.488 4.31827C180.51 4.24891 98.7598 3.74022 90.3646 4.11018C77.277 4.71135 14.7754 4.20266 2.19856 3.509C-1.3766 3.32403 -0.0359003 2.67661 2.29434 2.53788C5.93332 2.30666 15.7012 2.32978 42.4831 2.37603C61.3165 2.39915 211.154 1.86734 227.529 0.919334C236.722 0.387528 242.309 -0.098033 244.862 0.0175772C247.001 0.110065 247.033 0.387528 245.182 1.15055C243.937 1.65924 245.341 1.95983 246.235 2.09856C247.608 2.32978 247.033 3.11593 245.309 3.74022C242.979 4.59574 238.957 4.57261 240.872 3.7171C241.287 3.53212 241.383 3.06968 239.915 3.16217C235.637 3.43964 205.408 5.33564 197.204 5.65935C109.613 9.17389 24.1283 6.60735 6.02908 7.46287C-0.387046 7.78658 2.54973 6.4455 5.67798 6.16803Z" fill="white"/>
</svg>
