<svg width="276" height="12" viewBox="0 0 276 12" fill="none" xmlns="http://www.w3.org/2000/svg">
<path fill-rule="evenodd" clip-rule="evenodd" d="M7.06302 5.65845C12.9286 6.01832 28.3269 5.81523 70.1271 5.24798C135.4 4.35946 187.21 4.09141 201.618 4.59368C202.762 4.64379 111.275 6.47316 101.873 6.25419C87.2172 5.88927 17.2726 7.40333 3.20635 8.2778C-0.792361 8.51462 0.717281 9.11653 3.32724 9.21205C7.40326 9.37525 18.3352 9.19295 48.3088 8.70966C69.3868 8.37886 237.092 6.43676 255.433 7.08204C265.73 7.44391 271.989 7.82031 274.845 7.66707C277.237 7.54291 277.269 7.27501 275.186 6.57006C273.786 6.10026 275.354 5.7876 276.352 5.63927C277.885 5.39397 277.231 4.64582 275.293 4.07246C272.673 3.28622 268.172 3.37439 270.327 4.16743C270.794 4.33888 270.908 4.78293 269.263 4.71786C264.472 4.52056 230.613 3.1887 221.427 3.01115C123.345 1.05927 27.7064 4.93286 7.43771 4.40495C0.252205 4.19812 3.55797 5.44232 7.06302 5.65845Z" fill="#25B4F8"/>
</svg>
