<svg width="326" height="5" viewBox="0 0 326 5" fill="none" xmlns="http://www.w3.org/2000/svg">
<path fill-rule="evenodd" clip-rule="evenodd" d="M7.49402 4.07052C14.4034 3.76527 32.5617 3.75001 81.8547 3.71948C158.827 3.67369 219.917 3.33793 236.895 2.84953C238.243 2.80374 130.347 2.46797 119.267 2.71217C101.993 3.10899 19.5012 2.77322 2.90174 2.31535C-1.81689 2.19325 -0.0473825 1.7659 3.02815 1.67433C7.83102 1.5217 20.7231 1.53697 56.0707 1.56749C80.9278 1.58276 278.689 1.23172 300.302 0.605963C312.435 0.25493 319.808 -0.0655794 323.179 0.0107327C326.001 0.0717816 326.044 0.25493 323.6 0.758587C321.957 1.09436 323.811 1.29277 324.99 1.38434C326.802 1.53697 326.043 2.05589 323.768 2.46797C320.693 3.03268 315.384 3.01742 317.912 2.45271C318.46 2.33061 318.586 2.02536 316.648 2.08641C311.003 2.26956 271.105 3.52107 260.278 3.73474C144.671 6.05462 31.8455 4.3605 7.95741 4.92521C-0.510838 5.13888 3.36523 4.25367 7.49402 4.07052Z" fill="#25B4F8"/>
</svg>
