<svg width="212" height="5" viewBox="0 0 212 5" fill="none" xmlns="http://www.w3.org/2000/svg">
<g id="Group">
<path id="Vector" fill-rule="evenodd" clip-rule="evenodd" d="M4.87341 4.07052C9.36665 3.76527 21.1751 3.75001 53.2306 3.71948C103.286 3.67369 143.013 3.33793 154.055 2.84953C154.931 2.80374 84.7655 2.46797 77.5599 2.71217C66.3268 3.10899 12.6818 2.77322 1.88702 2.31535C-1.18153 2.19325 -0.0308132 1.7659 1.96923 1.67433C5.09257 1.5217 13.4763 1.53697 36.4632 1.56749C52.6279 1.58276 181.233 1.23172 195.288 0.605963C203.179 0.25493 207.973 -0.0655794 210.165 0.0107327C212.001 0.0717816 212.028 0.25493 210.439 0.758587C209.371 1.09436 210.576 1.29277 211.343 1.38434C212.521 1.53697 212.028 2.05589 210.549 2.46797C208.549 3.03268 205.097 3.01742 206.741 2.45271C207.097 2.33061 207.179 2.02536 205.919 2.08641C202.247 2.26956 176.302 3.52107 169.26 3.73474C94.0808 6.05462 20.7093 4.3605 5.17476 4.92521C-0.332201 5.13888 2.18843 4.25367 4.87341 4.07052Z" fill="#25B4F8"/>
</g>
</svg>
