<svg width="222" height="9" viewBox="0 0 222 9" fill="none" xmlns="http://www.w3.org/2000/svg">
<path fill-rule="evenodd" clip-rule="evenodd" d="M5.30327 4.21728C9.99767 4.46606 22.3228 4.30153 55.7808 3.84356C108.026 3.12647 149.496 2.86872 161.027 3.20791C161.943 3.24213 88.7139 4.66321 81.1894 4.51936C69.459 4.27832 13.4729 5.44701 2.21299 6.08805C-0.987913 6.26189 0.219639 6.6887 2.30855 6.75337C5.57081 6.86436 14.321 6.72041 38.3127 6.3375C55.1842 6.07468 189.419 4.47502 204.099 4.911C212.34 5.15548 217.349 5.41552 219.635 5.30269C221.55 5.21116 221.576 5.02029 219.91 4.52083C218.79 4.188 220.045 3.96326 220.844 3.85631C222.071 3.67961 221.549 3.14753 219.998 2.74162C217.902 2.18496 214.299 2.25357 216.024 2.81567C216.397 2.9372 216.488 3.25336 215.171 3.20913C211.337 3.07477 184.237 2.16973 176.885 2.05511C98.3819 0.79126 21.8273 3.67381 5.60479 3.32391C-0.146268 3.18585 2.49808 4.06785 5.30327 4.21728Z" fill="#25B4F8"/>
</svg>
