<svg width="323" height="10" viewBox="0 0 323 10" fill="none" xmlns="http://www.w3.org/2000/svg">
<path fill-rule="evenodd" clip-rule="evenodd" d="M7.42533 7.6381C14.2709 7.14644 32.2621 7.11356 81.1014 7.04176C157.366 6.93264 217.893 6.36691 234.715 5.57749C236.05 5.5036 129.147 5.01657 118.168 5.41248C101.054 6.0555 19.321 5.55663 2.87399 4.8317C-1.8013 4.63852 -0.0484026 3.95388 2.99876 3.80591C7.75732 3.55945 20.5307 3.57788 55.5531 3.61026C80.1814 3.6231 276.122 2.96928 297.536 1.95791C309.558 1.39055 316.862 0.874253 320.202 0.994794C322.999 1.09117 323.04 1.38421 320.62 2.19128C318.992 2.72933 320.829 3.04596 321.998 3.19194C323.793 3.43532 323.042 4.26602 320.788 4.92648C317.741 5.83153 312.482 5.80958 314.986 4.90478C315.528 4.70915 315.653 4.22065 313.733 4.31924C308.14 4.61494 268.61 6.63613 257.882 6.98308C143.342 10.7491 31.5529 8.09078 7.8851 9.00553C-0.505056 9.35138 3.33468 7.93309 7.42533 7.6381Z" fill="#25B4F8"/>
</svg>
